<svg id="svg" xmlns="http://www.w3.org/2000/svg" xmlns:xlink="http://www.w3.org/1999/xlink" width="400" height="400" viewBox="0, 0, 400,400"><g id="svgg"><path id="path0" d="M181.000 116.230 C 180.780 116.291,169.620 116.446,156.200 116.573 C 124.664 116.873,124.625 116.877,123.220 119.890 C 122.318 121.823,120.010 128.893,120.188 129.180 C 120.281 129.331,120.017 130.780,119.600 132.400 C 119.183 134.020,118.916 135.464,119.006 135.610 C 119.096 135.756,118.997 136.501,118.786 137.266 C 118.575 138.031,118.308 139.544,118.194 140.629 C 118.080 141.713,117.871 143.680,117.731 145.000 C 117.591 146.320,117.459 147.895,117.438 148.500 C 117.417 149.105,117.310 149.601,117.200 149.602 C 117.010 149.604,116.770 153.507,116.654 158.500 C 116.624 159.765,116.510 160.800,116.400 160.800 C 116.290 160.800,116.200 162.510,116.200 164.600 C 116.200 166.690,116.109 168.400,115.997 168.400 C 115.659 168.400,115.824 204.549,116.167 205.300 C 116.371 205.749,116.318 206.000,116.019 206.000 C 115.763 206.000,115.671 206.192,115.816 206.426 C 115.961 206.660,116.149 208.865,116.235 211.326 C 116.320 213.787,116.484 217.150,116.599 218.800 C 116.715 220.450,116.900 223.330,117.011 225.200 C 117.225 228.814,117.507 232.798,117.803 236.400 C 118.047 239.364,118.343 243.173,118.611 246.800 C 118.972 251.695,119.155 254.051,119.387 256.800 C 119.651 259.944,119.996 264.286,120.197 267.000 C 120.279 268.100,120.441 270.280,120.558 271.845 C 120.675 273.410,120.939 275.436,121.144 276.347 C 121.348 277.259,121.374 278.093,121.200 278.200 C 121.026 278.307,121.059 279.161,121.273 280.098 C 121.487 281.034,121.743 283.060,121.842 284.600 C 121.940 286.140,122.081 288.300,122.154 289.400 C 122.228 290.500,122.416 291.980,122.573 292.689 C 122.730 293.397,122.938 295.107,123.034 296.489 C 123.432 302.181,123.572 303.514,124.020 305.896 C 124.278 307.268,124.393 308.641,124.276 308.946 C 124.159 309.252,124.476 311.417,124.982 313.758 C 125.487 316.099,125.764 318.099,125.596 318.203 C 125.264 318.408,126.766 326.073,127.202 326.400 C 127.348 326.510,127.647 326.928,127.866 327.329 C 128.269 328.067,130.138 326.982,132.721 324.511 C 133.130 324.120,136.322 321.100,139.814 317.800 C 157.513 301.077,249.425 209.146,280.794 176.790 C 287.721 169.646,296.356 160.740,299.983 157.000 C 303.610 153.260,309.938 146.780,314.045 142.600 C 333.368 122.932,337.920 118.182,337.670 117.946 C 337.521 117.806,319.130 117.561,296.800 117.400 C 274.470 117.239,254.580 117.055,252.600 116.990 C 250.620 116.925,233.970 116.751,215.600 116.604 C 197.230 116.456,182.020 116.286,181.800 116.227 C 181.580 116.167,181.220 116.168,181.000 116.230 M293.400 126.153 C 294.500 126.267,297.110 126.472,299.200 126.607 C 305.875 127.038,310.540 127.805,311.180 128.575 C 312.157 129.754,305.303 137.991,288.027 156.400 C 282.211 162.597,278.795 166.138,262.400 182.962 C 253.406 192.191,221.694 223.897,211.152 234.200 C 203.943 241.246,197.689 247.266,185.806 258.600 C 184.379 259.962,182.337 261.864,173.998 269.600 C 171.265 272.135,168.331 274.783,166.019 276.800 C 164.632 278.010,163.116 279.360,162.649 279.800 C 161.828 280.574,157.552 284.185,156.492 285.000 C 156.206 285.220,155.753 285.587,155.486 285.815 C 155.219 286.043,154.352 286.626,153.560 287.110 L 152.120 287.991 150.906 286.656 C 150.171 285.849,149.580 284.664,149.410 283.659 C 149.255 282.745,148.994 282.080,148.829 282.182 C 148.465 282.407,145.815 269.823,146.122 269.326 C 146.241 269.133,146.071 267.721,145.744 266.188 C 145.417 264.654,145.060 262.230,144.951 260.800 C 144.842 259.370,144.681 257.390,144.593 256.400 C 143.374 242.582,142.897 233.657,142.645 219.931 C 142.557 215.163,142.366 211.068,142.219 210.831 C 142.073 210.594,142.154 210.400,142.400 210.400 C 142.646 210.400,142.726 210.203,142.577 209.963 C 142.261 209.451,142.266 199.863,142.591 185.800 C 142.821 175.837,142.929 173.214,143.406 166.000 C 143.544 163.910,143.722 161.210,143.801 160.000 C 143.951 157.705,144.274 154.135,144.580 151.400 C 144.679 150.520,144.858 148.839,144.978 147.664 C 145.099 146.489,145.280 145.394,145.381 145.230 C 145.548 144.960,146.015 141.619,146.126 139.900 C 146.151 139.515,146.323 139.200,146.509 139.200 C 146.695 139.200,146.733 139.016,146.594 138.791 C 146.455 138.566,146.634 137.503,146.991 136.429 C 147.347 135.354,147.728 133.988,147.836 133.393 C 148.104 131.913,149.922 128.398,150.516 128.209 C 150.782 128.124,161.440 127.939,174.200 127.797 C 186.960 127.656,199.110 127.483,201.200 127.414 C 203.290 127.344,210.130 127.156,216.400 126.995 C 222.670 126.834,228.790 126.663,230.000 126.614 C 231.210 126.565,236.520 126.387,241.800 126.218 C 247.080 126.049,251.465 125.850,251.545 125.777 C 251.774 125.566,291.167 125.920,293.400 126.153 " stroke="none" fill="#000000" fill-rule="evenodd"></path></g></svg>