<?xml version="1.0" standalone="no"?>
<!DOCTYPE svg PUBLIC "-//W3C//DTD SVG 20010904//EN"
 "http://www.w3.org/TR/2001/REC-SVG-20010904/DTD/svg10.dtd">
<svg version="1.0" xmlns="http://www.w3.org/2000/svg"
 width="25.000000pt" height="25.000000pt" viewBox="0 0 25.000000 25.000000"
 preserveAspectRatio="xMidYMid meet">

<g transform="translate(0.000000,25.000000) scale(0.100000,-0.100000)"
fill="#000000" stroke="none">
<path d="M82 179 c-13 -16 -30 -29 -38 -29 -15 0 -18 -18 -8 -44 3 -9 10 -13
15 -10 5 3 25 -3 43 -14 l33 -20 -3 47 c-3 36 -2 41 5 21 8 -23 9 -24 10 -3 1
12 -3 25 -9 28 -5 3 -10 15 -10 25 0 30 -13 30 -38 -1z m28 -40 c0 -56 -17
-64 -33 -15 -7 21 -5 32 9 47 9 10 19 19 21 19 1 0 3 -23 3 -51z m-42 -17 c2
-7 -3 -12 -12 -12 -9 0 -16 7 -16 16 0 17 22 14 28 -4z"/>
</g>
</svg>
