<svg width="302" height="182" xmlns="http://www.w3.org/2000/svg">
 <defs>
  <style>.cls-1{fill:#4dffaa;}</style>
 </defs>
 <g>
  <title>background</title>
  <rect fill="none" id="canvas_background" height="184" width="304" y="-1" x="-1"/>
 </g>
 <g>
  <title>Layer 1</title>
  <path id="svg_1" d="m104,6.53c-7.29,4 -9.92,13.32 -9.39,86.11c0.47,65 -0.18,74.87 7.83,79.85c11.32,7.05 36.41,-7.73 86.11,-37.58c47.55,-28.55 51.52,-35.69 51.67,-42.27c0.21,-9.45 -8.16,-15.29 -64.19,-51.67c-58.72,-38.12 -67.14,-37.09 -72.03,-34.44z" class="cls-1"/>
  <path id="svg_2" d="m6.56,86.54l0,-26.2l9.17,0l0,-22.27l31.44,0l0,22.27l11.83,0l0,26.2l-11.83,0l0,11.13c0,5.24 2.62,7.86 6.55,7.86a24.61,24.61 0 0 0 5.24,-0.66l0,26.2a54.05,54.05 0 0 1 -11.79,1.31c-19.65,0 -31.44,-11.79 -31.44,-34.71l0,-11.13l-9.17,0z"/>
  <path id="svg_3" d="m99.44,131.73c-21.62,0 -32.75,-12.45 -32.75,-12.45l9.82,-15.72a25.06,25.06 0 0 0 16.38,6.55c2,0 3.27,-1.31 3.27,-2.62c0,-3.93 -25.54,-5.24 -25.54,-26.19c0,-12.45 10.48,-22.93 30.78,-22.93a43.53,43.53 0 0 1 28.82,11.14l-9.82,15.72s-5.24,-5.23 -12.4,-5.23c-2,0 -3.27,1.31 -3.27,2.61c0,3.94 25.54,5.25 25.54,26.2c-0.05,12.44 -10.53,22.92 -30.83,22.92z"/>
  <path id="svg_4" d="m153,129.76l-20.31,-69.42l32.75,0l5.91,36.66l5.9,-36.68l32.75,0l-20.31,69.42l-36.69,0.02z"/>
  <path id="svg_5" d="m274.84,94.39l21,35.37l-34.75,0l-13.09,-27.51l0,27.51l-31.45,0l0,-96.93l31.45,0l0,53.71l11.13,-26.2l34.06,0l-18.35,34.05z"/>
 </g>
</svg>