<?xml version="1.0" standalone="no"?>
<!DOCTYPE svg PUBLIC "-//W3C//DTD SVG 20010904//EN"
 "http://www.w3.org/TR/2001/REC-SVG-20010904/DTD/svg10.dtd">
<svg version="1.0" xmlns="http://www.w3.org/2000/svg"
 width="25.000000pt" height="25.000000pt" viewBox="0 0 25.000000 25.000000"
 preserveAspectRatio="xMidYMid meet">

<g transform="translate(0.000000,25.000000) scale(0.100000,-0.100000)"
fill="#000000" stroke="none">
<path d="M57 123 c-3 -43 -5 -78 -4 -79 1 -1 39 21 85 48 l84 51 -74 28 c-40
16 -76 29 -79 29 -3 0 -9 -35 -12 -77z m81 43 c29 -11 52 -22 52 -25 0 -7
-121 -83 -125 -79 -5 7 8 129 14 126 4 -2 30 -12 59 -22z"/>
</g>
</svg>
